<svg viewBox="0 0 128 128" xmlns="http://www.w3.org/2000/svg" id="technology">
  <defs>
  <style>
    @media(prefers-color-scheme: dark) {
      :root { --color-logo-shape: #000000; --color-logo-base: #ffffff; }
    }
    body[data-color-scheme="dark"] {
      --color-logo-shape: #000000; --color-logo-base: #ffffff;
    }
  </style>
  <path id="surface" d="m 6,47 l 58,-47 58,47 -58,45 z"/>
  <path id="strut"   d="m 6,47 v 12 l 58,45 v -12 z"/>
  <path id="shape"   d="m 73.8,23.8 c -0.2,0 -0.4,0 -0.7,0 -0.8,0 -1.7,0.3 -2.4,0.9 l -9.1,7.3 -3.9,-3.1 c -0.7,-0.6 -1.9,-0.6 -2.6,0 l -12.3,9.7 c -0.7,0.6 -0.8,1.5 -0.1,2.1 l 3.9,3.1 -9.6,7.6 c -1.6,1.2 -1.8,2.6 -0.6,3.5 l 2.3,1.8 38.7,-30.6 -2.1,-1.7 c -0.4,-0.4 -0.9,-0.6 -1.6,-0.6 z m 5.5,3.8 -38.8,30.7 16.5,13.2 c 1,0.8 2.3,0.9 3.5,-0.1 l 35.2,-27.9 c 1.3,-1 0.8,-2.1 0.1,-2.7 z m -22.9,4.4 2.5,2 -9.7,7.7 -2.6,-2 z m 16.7,6.2 c 9.5,7.9 -1.6,24.1 -13,18.1 c 4.4,-1.1 8.5,-2.5 10.4,-5.8 -6.5,4.7 -11.5,4.9 -16.3,2.9 l 0.1,-0.8 c 1.4,0.6 2.9,1 4.5,1.2 -1.2,-8.6 14.4,-7.2 14.3,-15.7 z" />
  </defs>
  <use href="#strut" fill="#9ee0ff"/>
  <use href="#strut" fill="#6bd0ff" y="12"/>
  <use href="#strut" fill="#38c0ff" y="24"/>
  <g transform="matrix(-1 0 0 1 128 0)">
    <use href="#strut" fill="#f29eff"/>
    <use href="#strut" fill="#eb6bff" y="12"/>
    <use href="#strut" fill="#e438ff" y="24"/>
  </g>
  <use href="#surface" style="fill: var(--color-logo-base, #000000);"/>
  <use href="#shape" style="fill: var(--color-logo-shape, #ffffff);"/>
</svg>
